<?xml version="1.0" encoding="UTF-8" standalone="no"?>
<!-- Created with Inkscape (http://www.inkscape.org/) -->

<svg
   xmlns:dc="http://purl.org/dc/elements/1.1/"
   xmlns:cc="http://creativecommons.org/ns#"
   xmlns:rdf="http://www.w3.org/1999/02/22-rdf-syntax-ns#"
   xmlns:svg="http://www.w3.org/2000/svg"
   xmlns="http://www.w3.org/2000/svg"
   xmlns:sodipodi="http://sodipodi.sourceforge.net/DTD/sodipodi-0.dtd"
   xmlns:inkscape="http://www.inkscape.org/namespaces/inkscape"
   id="svg3020"
   version="1.1"
   inkscape:version="0.48.5 r10040"
   width="138.61661"
   height="30.25738"
   xml:space="preserve"
   sodipodi:docname="moustache.svg"><metadata
     id="metadata3026"><rdf:RDF><cc:Work
         rdf:about=""><dc:format>image/svg+xml</dc:format><dc:type
           rdf:resource="http://purl.org/dc/dcmitype/StillImage" /><dc:title></dc:title></cc:Work></rdf:RDF></metadata><defs
     id="defs3024" /><sodipodi:namedview
     pagecolor="#000000"
     bordercolor="#666666"
     borderopacity="1"
     objecttolerance="10"
     gridtolerance="10"
     guidetolerance="10"
     inkscape:pageopacity="0"
     inkscape:pageshadow="2"
     inkscape:window-width="1920"
     inkscape:window-height="1014"
     id="namedview3022"
     showgrid="false"
     inkscape:zoom="4.3803669"
     inkscape:cx="146.42359"
     inkscape:cy="36.219793"
     inkscape:window-x="0"
     inkscape:window-y="27"
     inkscape:window-maximized="1"
     inkscape:current-layer="g3028"
     fit-margin-top="0"
     fit-margin-left="0"
     fit-margin-right="0"
     fit-margin-bottom="0" /><g
     id="g3028"
     inkscape:groupmode="layer"
     inkscape:label="ink_ext_XXXXXX"
     transform="matrix(1.25,0,0,-1.25,-55.807334,155.71875)"
     style="display:inline"><g
       id="g3030"
       transform="scale(0.1,0.1)"><path
         d="m 1000.92,1100.74 c 149.15,137.74 312.05,-17.21 378.14,-13.31 113.28,6.65 163.4,158.32 163.4,158.32 -11.37,-46.53 -17.12,-89.65 -42.83,-130.12 24.35,8.73 55.28,33.28 54.08,62.26 0,0 8.59,-32.17 -13.06,-72.14 -79.9,-147.492 -442.31,-122.625 -539.73,-5.01"
         style="fill:#333333;fill-opacity:1;fill-rule:evenodd;stroke:none"
         id="path3198"
         inkscape:connector-curvature="0" /><path
         d="m 1000.92,1100.74 c -149.15,137.74 -312.037,-17.21 -378.135,-13.31 -113.273,6.65 -163.398,158.32 -163.398,158.32 11.371,-46.53 17.121,-89.65 42.84,-130.12 -24.36,8.73 -55.289,33.28 -54.082,62.26 0,0 -8.602,-32.17 13.05,-72.14 79.903,-147.492 442.313,-122.625 539.725,-5.01"
         style="fill:#333333;fill-opacity:1;fill-rule:evenodd;stroke:none"
         id="path3200"
         inkscape:connector-curvature="0" /></g></g></svg>